<svg xmlns="http://www.w3.org/2000/svg" xmlns:xlink="http://www.w3.org/1999/xlink" width="128" zoomAndPan="magnify" viewBox="0 0 96 95.999999" height="128" preserveAspectRatio="xMidYMid meet" version="1.0"><defs><clipPath id="ab9e5f4f8a"><path d="M 16.796875 2.777344 L 79.046875 2.777344 L 79.046875 72 L 16.796875 72 Z M 16.796875 2.777344 " clip-rule="nonzero"/></clipPath><clipPath id="8cefb91f21"><path d="M 25 34 L 71 34 L 71 93.527344 L 25 93.527344 Z M 25 34 " clip-rule="nonzero"/></clipPath></defs><g clip-path="url(#ab9e5f4f8a)"><path fill="#e58d00" d="M 47.996094 2.835938 L 16.796875 20.847656 L 16.796875 56.890625 L 41.890625 71.382812 C 41.746094 68.417969 40.355469 65.65625 38.097656 63.777344 L 21.476562 54.183594 L 21.476562 23.558594 L 47.996094 8.238281 L 74.519531 23.558594 L 74.519531 54.183594 L 57.898438 63.777344 C 55.640625 65.65625 54.25 68.417969 54.105469 71.382812 L 79.199219 56.890625 L 79.199219 20.847656 Z M 47.996094 2.835938 " fill-opacity="1" fill-rule="nonzero"/></g><path fill="#e58d00" d="M 50.292969 48.960938 L 70.617188 45.617188 L 70.617188 35.898438 C 63.121094 33.460938 54.808594 34.453125 47.996094 38.863281 C 46.480469 39.855469 44.890625 40.667969 43.246094 41.300781 Z M 50.292969 48.960938 " fill-opacity="1" fill-rule="nonzero"/><g clip-path="url(#8cefb91f21)"><path fill="#fbb321" d="M 47.996094 38.878906 C 41.203125 34.453125 32.875 33.460938 25.378906 35.898438 L 25.378906 51.925781 L 38.53125 59.511719 C 42.9375 62.058594 45.667969 66.773438 45.667969 71.871094 C 45.667969 74.328125 45.035156 76.730469 43.84375 78.863281 C 42.324219 81.554688 40.988281 84.425781 40.988281 86.125 C 40.988281 90.007812 44.132812 93.152344 48.015625 93.152344 C 51.898438 93.152344 55.042969 90.007812 55.042969 86.125 C 55.042969 84.425781 53.707031 81.554688 52.1875 78.863281 C 50.996094 76.730469 50.363281 74.308594 50.363281 71.871094 C 50.363281 66.773438 53.09375 62.058594 57.5 59.511719 L 70.652344 51.925781 L 70.652344 41.84375 C 63.136719 44.28125 54.808594 43.289062 47.996094 38.878906 Z M 53.472656 86.140625 C 53.472656 89.160156 51.015625 91.597656 48.015625 91.597656 C 47.996094 91.617188 51.992188 90.042969 53.472656 86.140625 Z M 53.472656 86.140625 " fill-opacity="1" fill-rule="nonzero"/></g></svg>